<svg xmlns="http://www.w3.org/2000/svg">
  <defs>
    <!-- astro icon -->
    <symbol id="astro" viewBox="0 0 85 107">
      <path d="M27.5894 91.1365C22.7555 86.7178 21.3444 77.4335 23.3583 70.7072C26.8503 74.948 31.6888 76.2914 36.7005 77.0497C44.4375 78.2199 52.0359 77.7822 59.2232 74.2459C60.0454 73.841 60.8052 73.3027 61.7036 72.7574C62.378 74.714 62.5535 76.6892 62.318 78.6996C61.7452 83.5957 59.3086 87.3778 55.4332 90.2448C53.8835 91.3916 52.2437 92.4167 50.6432 93.4979C45.7262 96.8213 44.3959 100.718 46.2435 106.386C46.2874 106.525 46.3267 106.663 46.426 107C43.9155 105.876 42.0817 104.24 40.6845 102.089C39.2087 99.8193 38.5066 97.3081 38.4696 94.5909C38.4511 93.2686 38.4511 91.9345 38.2733 90.6309C37.8391 87.4527 36.3471 86.0297 33.5364 85.9478C30.6518 85.8636 28.37 87.6469 27.7649 90.4554C27.7187 90.6707 27.6517 90.8837 27.5847 91.1341L27.5894 91.1365Z" fill="#F041FF"/>
      <path d="M0 69.5866C0 69.5866 14.3139 62.6137 28.6678 62.6137L39.4901 29.1204C39.8953 27.5007 41.0783 26.3999 42.4139 26.3999C43.7495 26.3999 44.9325 27.5007 45.3377 29.1204L56.1601 62.6137C73.1601 62.6137 84.8278 69.5866 84.8278 69.5866C84.8278 69.5866 60.5145 3.35233 60.467 3.21944C59.7692 1.2612 58.5911 0 57.0029 0H27.8274C26.2392 0 25.1087 1.2612 24.3634 3.21944C24.3108 3.34983 0 69.5866 0 69.5866Z" fill="currentColor"/>
    </symbol>

    <!-- k8s icon -->
    <svg id="k8s" viewBox="0 0 128 128">
      <path fill="#326ce5" d="M63.556 1.912a8.51 8.44 0 0 0-3.26.826L15.795 24a8.51 8.44 0 0 0-4.604 5.725L.214 77.485a8.51 8.44 0 0 0 1.155 6.47 8.51 8.44 0 0 0 .484.672l30.8 38.296a8.51 8.44 0 0 0 6.653 3.176l49.394-.012a8.51 8.44 0 0 0 6.653-3.17l30.789-38.301a8.51 8.44 0 0 0 1.645-7.142l-10.996-47.76a8.51 8.44 0 0 0-4.604-5.726L67.682 2.738a8.51 8.44 0 0 0-4.126-.826z"></path><path fill="#fff" d="M63.975 18.143v.01c-1.472.014-2.664 1.336-2.664 2.972 0 .028.005.052.005.074-.002.222-.012.49-.005.684.035.946.24 1.668.365 2.535.17 1.42.215 2.547.224 3.687l.036-.164a40.909 40.909 0 0 0-.118-2.394c.139 1.228.24 2.364.186 3.392-.015-.325-.061-.677-.066-.982l-.036.164c.003.347.096.79.069 1.123-.061.29-.291.495-.467.742l-.025.121c.173-.227.354-.444.46-.699-.134.423-.42.796-.707 1.094.08-.124.146-.262.24-.385l.026-.12c-.145.203-.227.457-.385.61l-.006.006-.064 1.12a34.702 34.702 0 0 0-4.797.736 34.279 34.279 0 0 0-17.398 9.935c-.296-.202-.8-.56-.95-.672l-.005-.005-.01.002c-.478.064-.95.207-1.57-.153-1.187-.8-2.271-1.907-3.584-3.24-.601-.637-1.037-1.246-1.754-1.861-.163-.141-.41-.33-.592-.473a3.193 3.193 0 0 0-1.87-.705c-.825-.028-1.62.294-2.14.947-.925 1.16-.628 2.933.658 3.96l.04.026c.174.143.39.326.552.446.762.561 1.457.849 2.21 1.293 1.594.984 2.91 1.798 3.956 2.779.402.427.474 1.19.53 1.525v.008l.847.754c-4.561 6.874-6.675 15.36-5.432 24.006l-1.103.324-.004.006c-.295.381-.712.972-1.135 1.147-1.366.43-2.908.588-4.77.783-.872.073-1.626.031-2.556.207-.205.04-.49.112-.713.164l-.023.006-.04.011c-1.58.383-2.6 1.837-2.27 3.272.327 1.435 1.873 2.306 3.464 1.963l.039-.006h.002c.02-.005.038-.015.05-.018.22-.048.496-.101.69-.154.913-.245 1.574-.603 2.393-.916 1.76-.632 3.218-1.16 4.637-1.365.582-.046 1.204.362 1.517.537l.008.004 1.152-.197c2.674 8.274 8.266 14.96 15.346 19.162l-.48 1.152.003.01c.174.45.364 1.057.237 1.492-.516 1.336-1.4 2.749-2.408 4.326-.488.728-.99 1.295-1.43 2.131-.107.201-.24.507-.342.717-.69 1.475-.184 3.177 1.143 3.816 1.335.643 2.99-.036 3.707-1.513l.007-.008v-.01c.1-.207.242-.478.329-.674.378-.866.505-1.607.77-2.441h-.003c.706-1.773 1.094-3.627 2.059-4.778.26-.31.688-.432 1.136-.552l.01-.004.6-1.084a34.436 34.436 0 0 0 24.556.062c.172.303.478.865.563 1.01l.004.006.008.004c.458.149.948.223 1.35.816.722 1.237 1.218 2.703 1.822 4.475.265.832.397 1.575.775 2.441.087.2.23.475.33.684.715 1.482 2.375 2.163 3.713 1.52 1.326-.64 1.832-2.34 1.143-3.815-.102-.21-.243-.518-.348-.719-.441-.836-.943-1.397-1.43-2.125-1.01-1.577-1.843-2.885-2.36-4.222-.213-.685.036-1.104.206-1.555l.006-.014-.01-.01a.834.834 0 0 1-.09-.168 6.23 6.23 0 0 1-.12-.29c-.08-.21-.16-.442-.224-.596 7.358-4.35 12.786-11.285 15.34-19.295.347.054.93.155 1.12.193l.01.002.009-.004c.402-.265.76-.606 1.475-.549 1.419.205 2.876.734 4.638 1.366.817.312 1.479.677 2.393.921.194.052.47.101.69.149.012.003.029.012.05.017h.002l.04.004c1.59.341 3.137-.528 3.464-1.963.327-1.435-.691-2.888-2.272-3.269-.227-.052-.551-.141-.775-.184-.93-.176-1.683-.132-2.557-.205-1.86-.195-3.402-.353-4.77-.783-.547-.213-.942-.872-1.138-1.148l-.006-.006-1.066-.31a34.42 34.42 0 0 0-.56-12.425 34.497 34.497 0 0 0-4.983-11.525c.278-.252.785-.701.932-.836l.007-.006v-.01c.044-.48.006-.97.495-1.494 1.045-.98 2.364-1.797 3.957-2.779.754-.444 1.454-.731 2.214-1.293.174-.128.408-.328.588-.473 1.286-1.026 1.584-2.798.658-3.959-.925-1.16-2.718-1.267-4.003-.242-.182.145-.43.332-.594.473-.717.618-1.16 1.226-1.76 1.863-1.313 1.335-2.398 2.446-3.586 3.246-.507.294-1.258.193-1.603.172h-.008l-1.004.719c-5.775-6.048-13.63-9.916-22.09-10.672a63.543 63.543 0 0 1-.064-1.174v-.008l-.006-.006c-.35-.333-.76-.61-.864-1.318v-.002c-.115-1.428.077-2.967.3-4.824.125-.867.332-1.59.366-2.535.009-.216-.005-.527-.005-.758 0-1.645-1.203-2.982-2.688-2.982zm-3.514 13.7a34.663 34.663 0 0 0-3.59.552 34.618 34.618 0 0 1 3.59-.551zm-4.781.823a34.262 34.262 0 0 0-3.711 1.133 34.208 34.208 0 0 1 3.71-1.133zm-4.825 1.564a34.262 34.262 0 0 0-3.496 1.666 34.216 34.216 0 0 1 3.496-1.666zM28.8 35.377c.142.02.28.048.418.086a3.168 3.168 0 0 0-.418-.086zm.943.283c.132.064.259.137.38.219a3.168 3.168 0 0 0-.38-.219zm16.549.848a34.262 34.262 0 0 0-3.176 2.14 34.228 34.228 0 0 1 3.176-2.14zm14.346 2.344-.787 13.93-.057.029-.002.013c-.002.05-.014.095-.02.143a2.348 2.348 0 0 1-.263.857c-.038.07-.076.141-.121.207a2.348 2.348 0 0 1-.69.662c-.07.045-.147.08-.222.118a2.348 2.348 0 0 1-.873.226c-.045.003-.088.014-.133.014-.05 0-.094-.022-.143-.026a2.334 2.334 0 0 1-.943-.304c-.045-.026-.094-.041-.137-.069l-.006.022.004-.022c-.044-.027-.102-.016-.144-.047l-.012-.01-.022.014-11.421-8.097c.093-.091.192-.174.287-.264a27.438 27.438 0 0 1 3.23-2.635c.237-.165.473-.332.715-.49a27.438 27.438 0 0 1 3.816-2.078c.24-.107.487-.204.73-.305a27.438 27.438 0 0 1 4.044-1.312c.12-.03.238-.067.36-.094.576-.13 1.162-.206 1.745-.299l.006-.025a28.076 28.076 0 0 1 .004 0l-.006.025c.355-.056.704-.14 1.06-.183zm6.726.002c.197.024.39.068.586.097a27.668 27.668 0 0 1 3.16.656c.412.111.82.23 1.225.36a27.668 27.668 0 0 1 3.033 1.168c.375.17.745.348 1.112.535a27.668 27.668 0 0 1 2.83 1.662c.344.23.68.47 1.015.717a27.668 27.668 0 0 1 2.496 2.074c.144.134.297.257.438.395l-11.346 8.044-.04-.015-.01.008c-.045.032-.094.045-.14.074a2.35 2.35 0 0 1-.882.334c-.077.012-.153.03-.23.033a2.35 2.35 0 0 1-.99-.176 2.34 2.34 0 0 1-.265-.127 2.35 2.35 0 0 1-.746-.65c-.05-.069-.088-.146-.13-.22a2.35 2.35 0 0 1-.288-.887c-.006-.055-.026-.103-.03-.159v-.011l-.011-.006zm-25.238.576a34.262 34.262 0 0 0-2.81 2.576 34.228 34.228 0 0 1 2.81-2.576zm50.916 8.14a34.483 34.483 0 0 1 1.522 2.594 34.478 34.478 0 0 0-1.522-2.594zm1.994 3.508c.488.993.927 2.01 1.317 3.045a34.478 34.478 0 0 0-1.317-3.045zm-54.576.69 10.43 9.328-.012.056.01.008c.94.817 1.07 2.23.293 3.203-.028.035-.068.057-.098.09a2.348 2.348 0 0 1-.986.65c-.043.015-.078.043-.121.055l-.014.002-.012.047-13.367 3.86c-.02-.185-.02-.37-.037-.555a27.432 27.432 0 0 1-.092-3.344c.013-.387.033-.773.063-1.158a27.432 27.432 0 0 1 .457-3.307c.08-.407.173-.812.273-1.215a27.432 27.432 0 0 1 .99-3.162c.14-.37.29-.734.448-1.097a27.432 27.432 0 0 1 1.51-2.987c.09-.156.17-.32.265-.474zm47.002.007c.097.158.176.324.27.483a27.774 27.774 0 0 1 1.53 3.01c.15.346.298.694.434 1.046a27.774 27.774 0 0 1 1.04 3.288c.045.175.104.346.144.523.69 3.002.86 5.999.578 8.896l-13.434-3.87-.011-.057-.014-.004c-.045-.012-.084-.034-.127-.049a2.35 2.35 0 0 1-.79-.455c-.058-.052-.116-.103-.17-.16a2.35 2.35 0 0 1-.491-.824c-.027-.078-.044-.158-.063-.239a2.35 2.35 0 0 1-.03-.892c.009-.049.01-.096.02-.145.01-.045.038-.084.05-.129a2.329 2.329 0 0 1 .599-.996c.034-.033.054-.076.09-.107l.01-.01-.006-.03 10.37-9.279zm9.228 3.305c.332.965.619 1.945.864 2.938a34.478 34.478 0 0 0-.864-2.938zm-34.824 6.752h4.262l2.65 3.314-.95 4.133-3.83 1.84-3.837-1.848-.953-4.132zm13.727 11.395c.18-.01.357.008.533.04l.014.003.023-.03 13.828 2.338c-.064.18-.147.351-.215.53a27.466 27.466 0 0 1-1.36 3.011c-.19.363-.386.721-.593 1.074a27.466 27.466 0 0 1-1.853 2.768c-.243.32-.492.633-.748.941a27.466 27.466 0 0 1-2.29 2.432c-.29.274-.588.54-.892.8a27.466 27.466 0 0 1-2.64 2.012c-.16.107-.31.225-.471.329l-5.365-12.967.015-.022-.004-.011c-.02-.045-.026-.092-.043-.137a2.351 2.351 0 0 1-.135-.889c.004-.081.006-.162.018-.242a2.351 2.351 0 0 1 .334-.89c.045-.072.098-.137.15-.204a2.351 2.351 0 0 1 .68-.578c.043-.024.079-.055.123-.076.289-.139.59-.218.89-.232zm-23.31.056.013.002c.03 0 .06.008.092.01a2.349 2.349 0 0 1 1.226.445c.07.05.133.101.196.158a2.349 2.349 0 0 1 .689 1.106c.008.03.022.059.03.09.11.479.065.98-.13 1.431l-.005.012.04.05-5.31 12.837c-.155-.1-.3-.212-.451-.315a27.58 27.58 0 0 1-2.64-2.011 27.508 27.508 0 0 1-.891-.803 27.58 27.58 0 0 1-2.272-2.408c-.26-.312-.513-.629-.76-.951a27.58 27.58 0 0 1-1.82-2.704 27.294 27.294 0 0 1-.627-1.123 27.58 27.58 0 0 1-1.346-2.947c-.07-.181-.154-.356-.22-.539l13.707-2.326.023.03.014-.005c.147-.027.294-.04.443-.039zm2.304 1.994a2.326 2.326 0 0 1 .02.344 2.286 2.286 0 0 0-.02-.344zm-.008.703a2.326 2.326 0 0 1-.1.4c.046-.13.077-.264.1-.4zm9.334 2.944c.058-.002.114.013.172.015a2.32 2.32 0 0 1 .752.159c.054.021.112.03.164.056v.002a2.31 2.31 0 0 1 1.043.99l.006.012h.053l6.757 12.213c-.276.092-.557.173-.836.256a28.056 28.056 0 0 1-.996.277c-.283.074-.564.15-.85.215-.124.029-.25.046-.376.072a27.542 27.542 0 0 1-4.18.561c-.28.016-.558.035-.838.043a27.542 27.542 0 0 1-4.32-.223c-.28-.036-.56-.085-.838-.13a27.542 27.542 0 0 1-4.055-.975c-.127-.041-.257-.072-.384-.115l6.742-12.188h.01l.007-.012c.026-.048.065-.085.094-.13a2.351 2.351 0 0 1 .606-.647c.083-.06.168-.115.26-.164a2.351 2.351 0 0 1 .85-.262c.054-.005.103-.023.157-.025zM52.297 98.69a34.413 34.413 0 0 0 3.758 1.137 34.352 34.352 0 0 1-3.758-1.137zm23.385.09c-1.07.381-2.156.709-3.258.983a34.56 34.56 0 0 0 3.258-.983zm-4.575 1.281a34.399 34.399 0 0 1-3.718.563 34.413 34.413 0 0 0 3.718-.563zm-13.937.016a34.413 34.413 0 0 0 3.898.572 34.358 34.358 0 0 1-3.898-.572zm8.91.649a34.36 34.36 0 0 1-3.851.005 34.413 34.413 0 0 0 3.85-.005z"></path>
    </svg>
          
    <!-- c# icon -->
    <symbol id="csharp" viewBox="0 0 128 128">
      <path fill="#9B4F96" d="M115.4 30.7L67.1 2.9c-.8-.5-1.9-.7-3.1-.7-1.2 0-2.3.3-3.1.7l-48 27.9c-1.7 1-2.9 3.5-2.9 5.4v55.7c0 1.1.2 2.4 1 3.5l106.8-62c-.6-1.2-1.5-2.1-2.4-2.7z"></path><path fill="#68217A" d="M10.7 95.3c.5.8 1.2 1.5 1.9 1.9l48.2 27.9c.8.5 1.9.7 3.1.7 1.2 0 2.3-.3 3.1-.7l48-27.9c1.7-1 2.9-3.5 2.9-5.4V36.1c0-.9-.1-1.9-.6-2.8l-106.6 62z"></path><path fill="#fff" d="M85.3 76.1C81.1 83.5 73.1 88.5 64 88.5c-13.5 0-24.5-11-24.5-24.5s11-24.5 24.5-24.5c9.1 0 17.1 5 21.3 12.5l13-7.5c-6.8-11.9-19.6-20-34.3-20-21.8 0-39.5 17.7-39.5 39.5s17.7 39.5 39.5 39.5c14.6 0 27.4-8 34.2-19.8l-12.9-7.6zM97 66.2l.9-4.3h-4.2v-4.7h5.1L100 51h4.9l-1.2 6.1h3.8l1.2-6.1h4.8l-1.2 6.1h2.4v4.7h-3.3l-.9 4.3h4.2v4.7h-5.1l-1.2 6h-4.9l1.2-6h-3.8l-1.2 6h-4.8l1.2-6h-2.4v-4.7H97zm4.8 0h3.8l.9-4.3h-3.8l-.9 4.3z"></path>
    </symbol>

    <!-- redis icon -->
    <svg id="redis" viewBox="0 0 128 128">
      <path fill="#A41E11" d="M121.8 93.1c-6.7 3.5-41.4 17.7-48.8 21.6-7.4 3.9-11.5 3.8-17.3 1S13 98.1 6.3 94.9c-3.3-1.6-5-2.9-5-4.2V78s48-10.5 55.8-13.2c7.8-2.8 10.4-2.9 17-.5s46.1 9.5 52.6 11.9v12.5c0 1.3-1.5 2.7-4.9 4.4z"></path><path fill="#D82C20" d="M121.8 80.5C115.1 84 80.4 98.2 73 102.1c-7.4 3.9-11.5 3.8-17.3 1-5.8-2.8-42.7-17.7-49.4-20.9C-.3 79-.5 76.8 6 74.3c6.5-2.6 43.2-17 51-19.7 7.8-2.8 10.4-2.9 17-.5s41.1 16.1 47.6 18.5c6.7 2.4 6.9 4.4.2 7.9z"></path><path fill="#A41E11" d="M121.8 72.5C115.1 76 80.4 90.2 73 94.1c-7.4 3.8-11.5 3.8-17.3 1C49.9 92.3 13 77.4 6.3 74.2c-3.3-1.6-5-2.9-5-4.2V57.3s48-10.5 55.8-13.2c7.8-2.8 10.4-2.9 17-.5s46.1 9.5 52.6 11.9V68c0 1.3-1.5 2.7-4.9 4.5z"></path><path fill="#D82C20" d="M121.8 59.8c-6.7 3.5-41.4 17.7-48.8 21.6-7.4 3.8-11.5 3.8-17.3 1C49.9 79.6 13 64.7 6.3 61.5s-6.8-5.4-.3-7.9c6.5-2.6 43.2-17 51-19.7 7.8-2.8 10.4-2.9 17-.5s41.1 16.1 47.6 18.5c6.7 2.4 6.9 4.4.2 7.9z"></path><path fill="#A41E11" d="M121.8 51c-6.7 3.5-41.4 17.7-48.8 21.6-7.4 3.8-11.5 3.8-17.3 1C49.9 70.9 13 56 6.3 52.8c-3.3-1.6-5.1-2.9-5.1-4.2V35.9s48-10.5 55.8-13.2c7.8-2.8 10.4-2.9 17-.5s46.1 9.5 52.6 11.9v12.5c.1 1.3-1.4 2.6-4.8 4.4z"></path><path fill="#D82C20" d="M121.8 38.3C115.1 41.8 80.4 56 73 59.9c-7.4 3.8-11.5 3.8-17.3 1S13 43.3 6.3 40.1s-6.8-5.4-.3-7.9c6.5-2.6 43.2-17 51-19.7 7.8-2.8 10.4-2.9 17-.5s41.1 16.1 47.6 18.5c6.7 2.4 6.9 4.4.2 7.8z"></path><path fill="#fff" d="M80.4 26.1l-10.8 1.2-2.5 5.8-3.9-6.5-12.5-1.1 9.3-3.4-2.8-5.2 8.8 3.4 8.2-2.7L72 23zM66.5 54.5l-20.3-8.4 29.1-4.4z"></path><ellipse fill="#fff" cx="38.4" cy="35.4" rx="15.5" ry="6"></ellipse><path fill="#7A0C00" d="M93.3 27.7l17.2 6.8-17.2 6.8z"></path><path fill="#AD2115" d="M74.3 35.3l19-7.6v13.6l-1.9.8z"></path>
    </svg>

    <!-- lua icon -->
    <symbol id="lua" viewBox="0 0 128 128">
      <path fill="#000080" d="M112.956.708c-7.912 0-14.335 6.424-14.335 14.336s6.424 14.335 14.335 14.335 14.335-6.41 14.335-14.335c0-7.912-6.424-14.336-14.335-14.336zM64 15.058c-27.02 0-48.956 21.935-48.956 48.955S36.979 112.97 64 112.97c27.02 0 48.956-21.935 48.956-48.956 0-27.02-21.936-48.956-48.956-48.956z"></path><path fill="#fff" d="M84.285 29.392c-7.91 0-14.335 6.424-14.335 14.335s6.424 14.336 14.335 14.336 14.336-6.424 14.336-14.336-6.424-14.335-14.335-14.335zM30.773 56.36v32.119h19.961v-3.611H34.87V56.359Zm57.584 8.37c-3.354 0-6.126.975-7.668 2.692-1.055 1.19-1.488 2.516-1.582 4.801h3.705c.311-2.826 1.988-4.098 5.423-4.098 3.3 0 5.153 1.231 5.153 3.435v.974c0 1.542-.92 2.205-3.827 2.556-5.193.663-5.991.839-7.398 1.407-2.69 1.095-4.057 3.164-4.057 6.166 0 4.193 2.908 6.83 7.574 6.83 2.907 0 5.247-1.014 7.843-3.395.257 2.34 1.407 3.395 3.787 3.395.757 0 1.325-.081 2.515-.392v-2.773a2.917 2.917 0 0 1-.798.095c-1.284 0-1.988-.663-1.988-1.812V71.032c0-4.098-3.002-6.302-8.682-6.302zm-33.742.664V83.19c0 3.84 2.867 6.302 7.357 6.302 3.395 0 5.545-1.19 7.709-4.233v3.219h3.3V65.393h-3.652v13.09c0 4.72-2.475 7.804-6.302 7.804-2.907 0-4.76-1.772-4.76-4.544v-16.35Zm38.773 11.67v4.139c0 1.244-.365 1.988-1.46 3.002-1.502 1.366-3.3 2.07-5.464 2.07-2.867 0-4.544-1.367-4.544-3.706 0-2.42 1.636-3.665 5.558-4.233 3.881-.528 4.68-.703 5.91-1.271z"></path><path fill="#808080" d="M61.733 0a64.06 64.06 0 0 0-5.57.436l.179 1.458a62.596 62.596 0 0 1 5.442-.426zm5.585.046-.075 1.468a62.432 62.432 0 0 1 5.433.52L72.88.578a63.91 63.91 0 0 0-5.561-.532Zm-16.665 1.31a63.301 63.301 0 0 0-5.409 1.398l.43 1.405a61.835 61.835 0 0 1 5.284-1.367Zm27.72.237-.33 1.431a62.536 62.536 0 0 1 5.262 1.455l.452-1.397a63.998 63.998 0 0 0-5.384-1.489ZM39.98 4.623a63.447 63.447 0 0 0-5.081 2.323l.668 1.308a61.98 61.98 0 0 1 4.964-2.27zm49.012.41-.573 1.353a62.539 62.539 0 0 1 4.929 2.346l.688-1.298a64.012 64.012 0 0 0-5.044-2.4ZM30.04 9.706a63.95 63.95 0 0 0-4.6 3.17l.886 1.173a62.484 62.484 0 0 1 4.494-3.098zm-8.906 6.728a64.247 64.247 0 0 0-3.983 3.918l1.075 1.001a62.774 62.774 0 0 1 3.891-3.827zm-7.61 8.165a64.04 64.04 0 0 0-3.247 4.546l1.231.8a62.571 62.571 0 0 1 3.172-4.44zm-6.086 9.357a63.459 63.459 0 0 0-2.408 5.042l1.352.574a61.99 61.99 0 0 1 2.352-4.925zm113.623.973-1.31.667a62.616 62.616 0 0 1 2.263 4.967l1.362-.55a64.073 64.073 0 0 0-2.315-5.083zM3.075 44.23a63.382 63.382 0 0 0-1.49 5.385l1.432.328a61.91 61.91 0 0 1 1.455-5.26Zm122.166 1.049-1.404.429a62.513 62.513 0 0 1 1.366 5.285l1.437-.306a63.983 63.983 0 0 0-1.399-5.409zM.574 55.108a64.093 64.093 0 0 0-.528 5.561l1.467.075a62.622 62.622 0 0 1 .516-5.434Zm126.988 1.088-1.458.179a62.465 62.465 0 0 1 .428 5.441l1.468-.05a63.916 63.916 0 0 0-.438-5.57zM1.468 66.205 0 66.255a64.082 64.082 0 0 0 .435 5.57l1.458-.179a62.61 62.61 0 0 1-.425-5.441Zm125.018 1.071a62.63 62.63 0 0 1-.518 5.434l1.455.203a64.16 64.16 0 0 0 .53-5.561zM2.79 77.031l-1.437.304a63.332 63.332 0 0 0 1.398 5.41l1.405-.43A61.864 61.864 0 0 1 2.79 77.03Zm122.188 1.046a61.966 61.966 0 0 1-1.457 5.26l1.397.454a63.43 63.43 0 0 0 1.492-5.384zM5.981 87.459l-1.362.551a63.434 63.434 0 0 0 2.323 5.082l1.307-.669a61.968 61.968 0 0 1-2.268-4.964Zm115.627.99a61.98 61.98 0 0 1-2.354 4.925l1.296.69a63.447 63.447 0 0 0 2.41-5.04zM10.944 97.17l-1.245.78a63.949 63.949 0 0 0 3.17 4.6l1.172-.885a62.481 62.481 0 0 1-3.097-4.495zm105.534.904a62.546 62.546 0 0 1-3.173 4.44l1.156.906a64.024 64.024 0 0 0 3.249-4.545zm-98.96 7.8-1.092.983a64.235 64.235 0 0 0 3.917 3.983l1.002-1.074a62.77 62.77 0 0 1-3.827-3.892zm92.24.79a62.76 62.76 0 0 1-3.893 3.826l.983 1.092a64.221 64.221 0 0 0 3.984-3.916zm-84.263 6.648-.906 1.157a64.026 64.026 0 0 0 4.546 3.248l.8-1.232a62.554 62.554 0 0 1-4.44-3.173zm76.16.654a62.475 62.475 0 0 1-4.495 3.096l.78 1.245a63.945 63.945 0 0 0 4.6-3.17zm-67.018 5.294-.691 1.296a63.45 63.45 0 0 0 5.04 2.409l.575-1.352a61.984 61.984 0 0 1-4.924-2.353zm57.775.496a61.956 61.956 0 0 1-4.964 2.268l.551 1.362a63.425 63.425 0 0 0 5.082-2.322zm-47.74 3.77-.453 1.396a63.419 63.419 0 0 0 5.385 1.49l.329-1.43a61.949 61.949 0 0 1-5.26-1.456zm37.632.322a62.05 62.05 0 0 1-5.284 1.365l.304 1.437a63.361 63.361 0 0 0 5.41-1.398zm-27.003 2.122-.203 1.455a64.093 64.093 0 0 0 5.561.529l.075-1.467a62.605 62.605 0 0 1-5.433-.517zm16.335.139a62.635 62.635 0 0 1-5.442.424l.05 1.468a64.114 64.114 0 0 0 5.57-.434z"></path>
    </symbol>

    <!-- javascript icon -->
    <symbol id="javascript" viewBox="0 0 630 630">
      <rect width="630" height="630" fill="#f7df1e"/>
      <path fill="black" d="m423.2 492.19c12.69 20.72 29.2 35.95 58.4 35.95 24.53 0 40.2-12.26 40.2-29.2 0-20.3-16.1-27.49-43.1-39.3l-14.8-6.35c-42.72-18.2-71.1-41-71.1-89.2 0-44.4 33.83-78.2 86.7-78.2 37.64 0 64.7 13.1 84.2 47.4l-46.1 29.6c-10.15-18.2-21.1-25.37-38.1-25.37-17.34 0-28.33 11-28.33 25.37 0 17.76 11 24.95 36.4 35.95l14.8 6.34c50.3 21.57 78.7 43.56 78.7 93 0 53.3-41.87 82.5-98.1 82.5-54.98 0-90.5-26.2-107.88-60.54zm-209.13 5.13c9.3 16.5 17.76 30.45 38.1 30.45 19.45 0 31.72-7.61 31.72-37.2v-201.3h59.2v202.1c0 61.3-35.94 89.2-88.4 89.2-47.4 0-74.85-24.53-88.81-54.075z"/>
    </symbol>

    <!-- typescript icon -->
    <symbol id="typescript" fill="none" viewBox="0 0 512 512">
      <rect fill="#3178c6" height="512" rx="50" width="512"/>
      <rect fill="#3178c6" height="512" rx="50" width="512"/>
      <path clip-rule="evenodd" fill="#fff" fill-rule="evenodd" d="m316.939 407.424v50.061c8.138 4.172 17.763 7.3 28.875 9.386s22.823 3.129 35.135 3.129c11.999 0 23.397-1.147 34.196-3.442 10.799-2.294 20.268-6.075 28.406-11.342 8.138-5.266 14.581-12.15 19.328-20.65s7.121-19.007 7.121-31.522c0-9.074-1.356-17.026-4.069-23.857s-6.625-12.906-11.738-18.225c-5.112-5.319-11.242-10.091-18.389-14.315s-15.207-8.213-24.18-11.967c-6.573-2.712-12.468-5.345-17.685-7.9-5.217-2.556-9.651-5.163-13.303-7.822-3.652-2.66-6.469-5.476-8.451-8.448-1.982-2.973-2.974-6.336-2.974-10.091 0-3.441.887-6.544 2.661-9.308s4.278-5.136 7.512-7.118c3.235-1.981 7.199-3.52 11.894-4.615 4.696-1.095 9.912-1.642 15.651-1.642 4.173 0 8.581.313 13.224.938 4.643.626 9.312 1.591 14.008 2.894 4.695 1.304 9.259 2.947 13.694 4.928 4.434 1.982 8.529 4.276 12.285 6.884v-46.776c-7.616-2.92-15.937-5.084-24.962-6.492s-19.381-2.112-31.066-2.112c-11.895 0-23.163 1.278-33.805 3.833s-20.006 6.544-28.093 11.967c-8.086 5.424-14.476 12.333-19.171 20.729-4.695 8.395-7.043 18.433-7.043 30.114 0 14.914 4.304 27.638 12.912 38.172 8.607 10.533 21.675 19.45 39.204 26.751 6.886 2.816 13.303 5.579 19.25 8.291s11.086 5.528 15.415 8.448c4.33 2.92 7.747 6.101 10.252 9.543 2.504 3.441 3.756 7.352 3.756 11.733 0 3.233-.783 6.231-2.348 8.995s-3.939 5.162-7.121 7.196-7.147 3.624-11.894 4.771c-4.748 1.148-10.303 1.721-16.668 1.721-10.851 0-21.597-1.903-32.24-5.71-10.642-3.806-20.502-9.516-29.579-17.13zm-84.159-123.342h64.22v-41.082h-179v41.082h63.906v182.918h50.874z"/>
    </symbol>

    <!-- tailwind icon -->
    <symbol id="tailwind" viewBox="0 0 47 40" fill="none">
      <path fill="#6366f1" d="M23.5 6.5C17.5 6.5 13.75 9.5 12.25 15.5C14.5 12.5 17.125 11.375 20.125 12.125C21.8367 12.5529 23.0601 13.7947 24.4142 15.1692C26.6202 17.4084 29.1734 20 34.75 20C40.75 20 44.5 17 46 11C43.75 14 41.125 15.125 38.125 14.375C36.4133 13.9471 35.1899 12.7053 33.8357 11.3308C31.6297 9.09158 29.0766 6.5 23.5 6.5ZM12.25 20C6.25 20 2.5 23 1 29C3.25 26 5.875 24.875 8.875 25.625C10.5867 26.0529 11.8101 27.2947 13.1642 28.6693C15.3702 30.9084 17.9234 33.5 23.5 33.5C29.5 33.5 33.25 30.5 34.75 24.5C32.5 27.5 29.875 28.625 26.875 27.875C25.1633 27.4471 23.9399 26.2053 22.5858 24.8307C20.3798 22.5916 17.8266 20 12.25 20Z"/>
    </symbol>
  </defs>
</svg>